<svg version="1.1" id="Layer_1" xmlns="http://www.w3.org/2000/svg" xmlns:xlink="http://www.w3.org/1999/xlink" x="0px" y="0px"
	 width="100%" viewBox="0 0 400 97" enable-background="new 0 0 400 97" xml:space="preserve">
<path fill="#FFFEFE" opacity="1.000000" stroke="none" 
	d="
M297.000000,98.000000 
	C198.000015,98.000000 99.500023,98.000000 1.000026,98.000000 
	C1.000018,65.666679 1.000018,33.333366 1.000009,1.000035 
	C134.333298,1.000023 267.666595,1.000023 400.999939,1.000012 
	C400.999939,33.333298 400.999939,65.666595 400.999969,97.999947 
	C366.500000,98.000000 332.000000,98.000000 297.000000,98.000000 
M252.230118,54.899651 
	C244.824387,54.998100 237.418671,55.096550 229.327881,54.824192 
	C228.768311,52.916515 228.288788,50.980938 227.635330,49.105988 
	C224.792725,40.949879 216.866806,35.654198 209.083817,37.171795 
	C205.735046,37.824772 202.596695,39.556927 199.098221,40.900379 
	C198.712875,39.784523 198.259293,38.471054 197.681778,36.798702 
	C193.038940,37.924965 188.654755,38.988480 184.270584,40.051994 
	C190.904938,43.961014 190.906815,43.961014 190.908173,51.738968 
	C190.910019,62.236759 190.858047,72.734901 190.931549,83.232178 
	C190.964600,87.951157 191.329880,92.723984 184.052719,92.185127 
	C186.827194,95.924973 202.143463,96.058914 204.792664,93.041702 
	C198.333633,89.992218 197.035965,85.844353 199.532425,75.887062 
	C200.155304,76.063301 200.784546,76.204155 201.388107,76.417603 
	C213.886078,80.837578 225.064011,75.011757 228.523453,62.313770 
	C228.853470,61.102417 229.508514,59.979614 230.676559,59.360588 
	C238.115356,59.248150 245.554138,59.135712 253.076935,59.804104 
	C253.262436,60.783863 253.382614,61.781387 253.643494,62.740643 
	C256.353485,72.705109 265.094147,78.981773 274.829956,77.979721 
	C284.357544,76.999100 292.379395,68.629349 293.027649,58.992741 
	C293.738129,48.431007 287.665955,39.963867 277.594116,37.472019 
	C266.604156,34.753014 256.464661,42.058258 252.230118,54.899651 
M143.532486,56.564655 
	C143.532562,54.899960 143.484116,53.233585 143.541595,51.570877 
	C143.731339,46.081100 142.577957,41.093613 137.204391,38.488960 
	C131.257584,35.606461 125.576683,36.659168 120.406525,40.703274 
	C119.446465,41.454239 118.427757,42.130230 116.339165,43.626896 
	C116.339165,33.012527 116.339165,23.546450 116.339165,12.935394 
	C111.485573,16.208521 106.010315,14.818632 101.646629,19.758709 
	C108.674950,19.448372 109.132645,23.077253 109.075157,27.549974 
	C108.916847,39.866451 109.022636,52.186298 109.020943,64.504814 
	C109.019905,72.080688 109.017426,72.080688 102.735817,75.048141 
	C105.411201,78.091637 120.810005,77.914032 123.179092,74.326653 
	C116.591370,74.541618 116.603241,70.284096 116.807404,65.630760 
	C117.018806,60.812511 116.826515,55.977573 116.861969,51.150307 
	C116.901642,45.749489 120.988945,42.086277 126.978622,42.020275 
	C132.432602,41.960178 135.522690,44.873684 135.759140,50.635788 
	C135.936432,54.956772 135.803787,59.290581 135.804611,63.618679 
	C135.806137,71.740379 135.804764,71.740379 129.531677,75.203842 
	C132.398956,77.873871 147.016541,77.842934 149.743469,75.161072 
	C143.541718,71.927498 143.541290,71.927498 143.533203,64.035294 
	C143.530991,61.871231 143.532211,59.707169 143.532486,56.564655 
M95.609283,68.562004 
	C94.699249,69.735115 93.952301,71.097282 92.850304,72.047844 
	C88.609657,75.705742 80.821922,75.898743 77.066139,72.575676 
	C73.977997,69.843338 74.033661,65.813766 77.865837,59.573311 
	C74.830475,59.573311 71.908882,58.734997 70.125328,59.800903 
	C68.208763,60.946308 66.512428,63.775391 66.232376,66.055557 
	C65.731712,70.131783 67.889214,73.580811 71.728912,75.313072 
	C80.792900,79.402267 89.869667,79.465309 98.375618,73.939629 
	C106.120750,68.908203 107.257256,58.997269 100.758514,52.359341 
	C98.156921,49.702030 94.621323,47.883602 91.331749,45.995354 
	C87.593887,43.849777 83.558708,42.220196 79.832947,40.056107 
	C76.416786,38.071846 73.903183,34.779171 75.556252,30.953634 
	C76.708237,28.287718 79.527069,25.608089 82.236580,24.527561 
	C85.957794,23.043571 90.579056,23.344217 93.073082,27.087910 
	C94.171616,28.736891 93.300835,31.866760 92.874214,34.243538 
	C92.768158,34.834431 90.913857,35.111523 89.208992,35.795158 
	C95.393379,39.020199 98.950325,38.392315 101.015633,35.049557 
	C103.073448,31.718901 102.016907,26.946949 98.482948,24.412560 
	C93.754120,21.021269 88.309586,20.647270 82.732590,20.973272 
	C74.629829,21.446918 68.950455,25.637417 67.502831,32.241707 
	C65.966705,39.249744 68.854706,45.052353 76.170837,49.030239 
	C80.691719,51.488308 85.466644,53.479172 89.987282,55.937653 
	C94.620598,58.457405 97.383675,62.130184 95.609283,68.562004 
M298.141632,63.414803 
	C298.023468,68.300941 299.902985,74.234482 291.641876,74.610535 
	C294.741608,78.124649 310.193604,77.906319 312.224121,74.403496 
	C306.010193,74.331169 305.657990,70.341377 305.920593,65.586838 
	C306.195526,60.608799 305.930481,55.603107 305.997162,50.610783 
	C306.062225,45.738289 310.469788,42.066956 316.166504,42.022606 
	C321.499115,41.981083 324.711029,44.790077 324.942566,50.084568 
	C325.145996,54.736351 325.014069,59.403137 325.016388,64.063301 
	C325.020264,71.870560 325.015625,71.870560 318.725800,75.123199 
	C321.586700,78.124413 336.952698,77.854614 339.289551,74.045013 
	C332.471222,74.882858 332.712067,70.529305 332.827148,66.069572 
	C332.960144,60.913395 332.863556,55.751064 332.851746,50.591438 
	C332.839905,45.433212 331.291687,40.922150 326.440887,38.491463 
	C321.104095,35.817245 315.785522,36.487694 310.847046,39.790913 
	C309.388794,40.766300 308.080780,41.966267 306.306580,43.379902 
	C305.931061,40.941177 305.646332,39.091942 305.284882,36.744495 
	C300.467102,38.043732 296.067169,39.230278 290.746552,40.665112 
	C292.269104,41.988327 292.735138,42.741489 293.190674,42.735199 
	C297.590302,42.674477 298.315460,45.302700 298.179718,48.955658 
	C298.012939,53.443329 298.141083,57.941956 298.141632,63.414803 
M161.631760,37.879089 
	C159.423386,38.994129 157.006668,39.826351 155.042740,41.273190 
	C146.557175,47.524548 144.385178,59.422737 149.883926,68.526039 
	C155.054367,77.085861 165.433701,80.295425 174.607056,76.171112 
	C184.453751,71.744072 189.313202,60.995014 186.034653,50.893421 
	C182.749237,40.770752 173.078339,35.351055 161.631760,37.879089 
z"/>
<path fill="#FC2F7E" opacity="1.000000" stroke="none" 
	d="
M143.532166,57.053879 
	C143.532211,59.707169 143.530991,61.871231 143.533203,64.035294 
	C143.541290,71.927498 143.541718,71.927498 149.743469,75.161072 
	C147.016541,77.842934 132.398956,77.873871 129.531677,75.203842 
	C135.804764,71.740379 135.806137,71.740379 135.804611,63.618679 
	C135.803787,59.290581 135.936432,54.956772 135.759140,50.635788 
	C135.522690,44.873684 132.432602,41.960178 126.978622,42.020275 
	C120.988945,42.086277 116.901642,45.749489 116.861969,51.150307 
	C116.826515,55.977573 117.018806,60.812511 116.807404,65.630760 
	C116.603241,70.284096 116.591370,74.541618 123.179092,74.326653 
	C120.810005,77.914032 105.411201,78.091637 102.735817,75.048141 
	C109.017426,72.080688 109.019905,72.080688 109.020943,64.504814 
	C109.022636,52.186298 108.916847,39.866451 109.075157,27.549974 
	C109.132645,23.077253 108.674950,19.448372 101.646629,19.758709 
	C106.010315,14.818632 111.485573,16.208521 116.339165,12.935394 
	C116.339165,23.546450 116.339165,33.012527 116.339165,43.626896 
	C118.427757,42.130230 119.446465,41.454239 120.406525,40.703274 
	C125.576683,36.659168 131.257584,35.606461 137.204391,38.488960 
	C142.577957,41.093613 143.731339,46.081100 143.541595,51.570877 
	C143.484116,53.233585 143.532562,54.899960 143.532166,57.053879 
z"/>
<path fill="#FC307F" opacity="1.000000" stroke="none" 
	d="
M95.747375,68.183769 
	C97.383675,62.130184 94.620598,58.457405 89.987282,55.937653 
	C85.466644,53.479172 80.691719,51.488308 76.170837,49.030239 
	C68.854706,45.052353 65.966705,39.249744 67.502831,32.241707 
	C68.950455,25.637417 74.629829,21.446918 82.732590,20.973272 
	C88.309586,20.647270 93.754120,21.021269 98.482948,24.412560 
	C102.016907,26.946949 103.073448,31.718901 101.015633,35.049557 
	C98.950325,38.392315 95.393379,39.020199 89.208992,35.795158 
	C90.913857,35.111523 92.768158,34.834431 92.874214,34.243538 
	C93.300835,31.866760 94.171616,28.736891 93.073082,27.087910 
	C90.579056,23.344217 85.957794,23.043571 82.236580,24.527561 
	C79.527069,25.608089 76.708237,28.287718 75.556252,30.953634 
	C73.903183,34.779171 76.416786,38.071846 79.832947,40.056107 
	C83.558708,42.220196 87.593887,43.849777 91.331749,45.995354 
	C94.621323,47.883602 98.156921,49.702030 100.758514,52.359341 
	C107.257256,58.997269 106.120750,68.908203 98.375618,73.939629 
	C89.869667,79.465309 80.792900,79.402267 71.728912,75.313072 
	C67.889214,73.580811 65.731712,70.131783 66.232376,66.055557 
	C66.512428,63.775391 68.208763,60.946308 70.125328,59.800903 
	C71.908882,58.734997 74.830475,59.573311 77.865837,59.573311 
	C74.033661,65.813766 73.977997,69.843338 77.066139,72.575676 
	C80.821922,75.898743 88.609657,75.705742 92.850304,72.047844 
	C93.952301,71.097282 94.699249,69.735115 95.747375,68.183769 
z"/>
<path fill="#FC317F" opacity="1.000000" stroke="none" 
	d="
M230.012665,58.815697 
	C229.508514,59.979614 228.853470,61.102417 228.523453,62.313770 
	C225.064011,75.011757 213.886078,80.837578 201.388107,76.417603 
	C200.784546,76.204155 200.155304,76.063301 199.532425,75.887062 
	C197.035965,85.844353 198.333633,89.992218 204.792664,93.041702 
	C202.143463,96.058914 186.827194,95.924973 184.052719,92.185127 
	C191.329880,92.723984 190.964600,87.951157 190.931549,83.232178 
	C190.858047,72.734901 190.910019,62.236759 190.908173,51.738968 
	C190.906815,43.961014 190.904938,43.961014 184.270584,40.051994 
	C188.654755,38.988480 193.038940,37.924965 197.681778,36.798702 
	C198.259293,38.471054 198.712875,39.784523 199.098221,40.900379 
	C202.596695,39.556927 205.735046,37.824772 209.083817,37.171795 
	C216.866806,35.654198 224.792725,40.949879 227.635330,49.105988 
	C228.288788,50.980938 228.768311,52.916515 229.670700,55.371628 
	C230.013229,56.884605 230.012939,57.850151 230.012665,58.815697 
M220.142929,57.543022 
	C219.012146,53.458729 218.477676,49.070496 216.592041,45.370949 
	C214.474487,41.216354 208.898056,40.005798 204.294601,41.532948 
	C199.825058,43.015686 198.251144,45.982941 198.646301,50.663460 
	C199.036041,55.279678 198.723450,59.954533 198.733749,64.603622 
	C198.746613,70.415405 200.939682,73.366447 206.177200,74.652252 
	C210.873749,75.805252 215.651443,73.746986 217.612610,68.972969 
	C218.968246,65.672981 219.333771,61.966259 220.142929,57.543022 
z"/>
<path fill="#FC307F" opacity="1.000000" stroke="none" 
	d="
M298.141693,62.925323 
	C298.141083,57.941956 298.012939,53.443329 298.179718,48.955658 
	C298.315460,45.302700 297.590302,42.674477 293.190674,42.735199 
	C292.735138,42.741489 292.269104,41.988327 290.746552,40.665112 
	C296.067169,39.230278 300.467102,38.043732 305.284882,36.744495 
	C305.646332,39.091942 305.931061,40.941177 306.306580,43.379902 
	C308.080780,41.966267 309.388794,40.766300 310.847046,39.790913 
	C315.785522,36.487694 321.104095,35.817245 326.440887,38.491463 
	C331.291687,40.922150 332.839905,45.433212 332.851746,50.591438 
	C332.863556,55.751064 332.960144,60.913395 332.827148,66.069572 
	C332.712067,70.529305 332.471222,74.882858 339.289551,74.045013 
	C336.952698,77.854614 321.586700,78.124413 318.725800,75.123199 
	C325.015625,71.870560 325.020264,71.870560 325.016388,64.063301 
	C325.014069,59.403137 325.145996,54.736351 324.942566,50.084568 
	C324.711029,44.790077 321.499115,41.981083 316.166504,42.022606 
	C310.469788,42.066956 306.062225,45.738289 305.997162,50.610783 
	C305.930481,55.603107 306.195526,60.608799 305.920593,65.586838 
	C305.657990,70.341377 306.010193,74.331169 312.224121,74.403496 
	C310.193604,77.906319 294.741608,78.124649 291.641876,74.610535 
	C299.902985,74.234482 298.023468,68.300941 298.141693,62.925323 
z"/>
<path fill="#FC3280" opacity="1.000000" stroke="none" 
	d="
M162.030243,37.771729 
	C173.078339,35.351055 182.749237,40.770752 186.034653,50.893421 
	C189.313202,60.995014 184.453751,71.744072 174.607056,76.171112 
	C165.433701,80.295425 155.054367,77.085861 149.883926,68.526039 
	C144.385178,59.422737 146.557175,47.524548 155.042740,41.273190 
	C157.006668,39.826351 159.423386,38.994129 162.030243,37.771729 
M157.302444,47.176353 
	C155.141754,54.043495 154.925095,60.945904 157.307327,67.775078 
	C158.883774,72.294350 162.146927,74.967697 167.069427,74.886375 
	C171.752716,74.808990 175.562012,72.313393 176.207565,67.853920 
	C177.139282,61.417820 177.378983,54.743698 176.793427,48.272537 
	C176.378525,43.687492 172.759888,40.601803 167.891876,40.161369 
	C163.073013,39.725376 159.547440,41.893341 157.302444,47.176353 
z"/>
<path fill="#FC317F" opacity="1.000000" stroke="none" 
	d="
M253.040619,55.162155 
	C256.464661,42.058258 266.604156,34.753014 277.594116,37.472019 
	C287.665955,39.963867 293.738129,48.431007 293.027649,58.992741 
	C292.379395,68.629349 284.357544,76.999100 274.829956,77.979721 
	C265.094147,78.981773 256.353485,72.705109 253.643494,62.740643 
	C253.382614,61.781387 253.262436,60.783863 253.033447,59.027306 
	C253.006851,57.221054 253.023743,56.191605 253.040619,55.162155 
M267.495911,41.764572 
	C261.657990,47.363529 259.906097,59.828613 263.697205,68.364075 
	C265.484467,72.388023 268.430389,74.808861 272.880493,74.895897 
	C277.587372,74.987961 281.481079,72.624290 282.246002,68.189613 
	C283.324707,61.935951 284.110413,55.284290 283.120605,49.107388 
	C281.821198,40.998428 275.978973,38.560947 267.495911,41.764572 
z"/>
<path fill="#FC287A" opacity="1.000000" stroke="none" 
	d="
M252.635376,55.030903 
	C253.023743,56.191605 253.006851,57.221054 252.991455,58.636890 
	C245.554138,59.135712 238.115356,59.248150 230.344604,59.088142 
	C230.012939,57.850151 230.013229,56.884605 230.013229,55.557030 
	C237.418671,55.096550 244.824387,54.998100 252.635376,55.030903 
z"/>
<path fill="#FFFCFD" opacity="1.000000" stroke="none" 
	d="
M220.142334,57.992157 
	C219.333771,61.966259 218.968246,65.672981 217.612610,68.972969 
	C215.651443,73.746986 210.873749,75.805252 206.177200,74.652252 
	C200.939682,73.366447 198.746613,70.415405 198.733749,64.603622 
	C198.723450,59.954533 199.036041,55.279678 198.646301,50.663460 
	C198.251144,45.982941 199.825058,43.015686 204.294601,41.532948 
	C208.898056,40.005798 214.474487,41.216354 216.592041,45.370949 
	C218.477676,49.070496 219.012146,53.458729 220.142334,57.992157 
z"/>
<path fill="#FFFBFD" opacity="1.000000" stroke="none" 
	d="
M157.475662,46.817574 
	C159.547440,41.893341 163.073013,39.725376 167.891876,40.161369 
	C172.759888,40.601803 176.378525,43.687492 176.793427,48.272537 
	C177.378983,54.743698 177.139282,61.417820 176.207565,67.853920 
	C175.562012,72.313393 171.752716,74.808990 167.069427,74.886375 
	C162.146927,74.967697 158.883774,72.294350 157.307327,67.775078 
	C154.925095,60.945904 155.141754,54.043495 157.475662,46.817574 
z"/>
<path fill="#FFFBFC" opacity="1.000000" stroke="none" 
	d="
M267.812012,41.539627 
	C275.978973,38.560947 281.821198,40.998428 283.120605,49.107388 
	C284.110413,55.284290 283.324707,61.935951 282.246002,68.189613 
	C281.481079,72.624290 277.587372,74.987961 272.880493,74.895897 
	C268.430389,74.808861 265.484467,72.388023 263.697205,68.364075 
	C259.906097,59.828613 261.657990,47.363529 267.812012,41.539627 
z"/>
</svg>